<svg width="419" height="449" viewBox="0 0 419 449" fill="none" xmlns="http://www.w3.org/2000/svg">
<path d="M323.374 249.683L322.626 256.818C320.681 261.465 318.738 266.11 316.796 270.751C316.117 272.381 315.436 274.008 314.752 275.632C314.442 276.392 314.002 277.092 313.452 277.701C313.424 277.742 313.388 277.776 313.346 277.801C313.304 277.826 313.256 277.84 313.207 277.844C313.042 277.844 312.983 277.625 312.97 277.46C312.877 275.7 312.667 273.948 312.341 272.216C310.522 263.852 300.811 260.787 293.194 260.977C290.147 261.023 287.144 261.719 284.387 263.016C280.41 264.941 278.86 270.295 278.649 270.493L278.48 271.182L275.753 282.543C275.178 285.077 274.739 286.415 272.4 287.091C272.324 287.116 269.994 288.357 269.918 288.357C269.014 288.611 271.488 288.066 270.509 287.901L267.406 287.416L266.084 287.112L246.802 282.548C247.549 282.674 248.313 282.814 249.09 282.97L253.566 284.038L252.383 278.363C249.305 260.698 254.406 244.671 263.095 235.969C265.383 233.681 266.519 233.094 269.187 231.57L270.686 235.121C270.686 235.121 286.021 239.693 289.635 225.663C291.096 225.79 293.903 225.769 295.352 226.085C302.9 227.668 309.718 231.692 314.752 237.536C315.196 238.042 315.63 238.566 316.061 239.098L316.289 239.377C316.555 239.71 316.838 240.052 317.104 240.394L317.294 240.664C319.501 243.545 321.531 246.557 323.374 249.683Z" fill="#2D2D36"/>
<path d="M96.0005 255.5C88.5006 184.5 153.924 151.892 183.42 149.194C248.981 143.203 213.54 125.128 234.887 105.348C256.234 85.5673 336.948 118.111 315.833 168.937C294.719 219.762 364.421 163.351 393.942 227.73C398.219 237.072 400.278 247.276 399.959 257.546C399.586 268.397 396.792 279.027 391.78 288.659C382.352 307.076 364.839 323.483 339.511 333.649C335.773 335.172 331.86 336.542 327.773 337.757" stroke="#CCDDE2" stroke-width="4.52" stroke-miterlimit="10"/>
<path d="M348.841 275.836C348.33 281.802 344.286 282.773 344.286 282.773C340.866 284.796 335.613 282.621 334.554 278.83C334.538 278.789 334.53 278.747 334.528 278.703C333.684 275.456 332.037 271.285 329.825 266.721C325.561 256.402 320.017 245.999 312.907 237.77C307.873 231.926 301.055 227.903 293.506 226.319C293.481 226.319 293.468 226.294 293.443 226.294C283.432 223.28 278.56 217.124 276.449 211.221C276.449 211.221 276.449 211.221 276.449 211.196C275.546 207.468 274.625 203.833 275.119 201.633C275.964 197.778 276.386 193.611 275.334 192.766C274.013 191.66 271.623 192.479 265.543 193.704C260.278 194.785 257.471 194.172 256.837 190.955C256.737 190.456 256.686 189.948 256.685 189.439C256.66 189.76 255.419 188.485 255.36 188.789C254.963 190.432 254.169 191.09 252.438 191.812C249.867 192.88 248.815 197.005 248.435 199.754C248.039 202.68 249.356 206.716 250.399 209.465C249.065 207.941 247.536 208.118 245.146 209.043C244.547 209.271 243.035 209.207 241.841 208.789C242.009 208.644 242.208 208.539 242.423 208.481C242.807 208.354 240.021 206.97 240.426 206.881C244.484 205.965 246.759 202.583 246.278 199.606C245.083 192.112 246.675 183.296 251.737 177.457C257.319 171.035 266.426 169.701 274.135 172.64C280.19 174.941 285.915 179.661 288.013 185.956C288.013 185.982 288.013 186.007 288.039 186.032C288.306 186.833 288.51 187.653 288.651 188.485C289.424 193.168 287.773 197.913 286.857 202.541C286.527 204.208 287.363 206.028 287.541 207.35C288.558 215.287 297.72 217.529 304.969 220.898C320.207 227.996 332.649 240.13 341.018 254.886C346.574 264.656 348.558 271.319 348.841 275.836Z" fill="#4D8F9B"/>
<path d="M268.512 229.996C268.347 230.085 268.182 230.173 268.03 230.275C265.294 231.843 262.778 233.769 260.549 236C251.864 244.702 246.764 260.729 249.842 278.394L251.024 284.039" stroke="#2D2D36" stroke-width="3.52" stroke-miterlimit="10"/>
<path d="M345.353 348.527C345.355 335.339 344.215 322.176 341.946 309.185C340.428 300.371 338.338 291.665 335.689 283.122C334.097 277.933 332.151 272.335 329.837 266.715C327.688 261.456 325.206 256.34 322.406 251.397C319.691 246.558 316.514 241.992 312.919 237.764C307.885 231.921 301.067 227.897 293.519 226.314C292.071 226.007 290.606 225.787 289.132 225.655" stroke="#2D2D36" stroke-width="3.52" stroke-miterlimit="10"/>
<path d="M189.297 233.758L189.081 233.72C186.503 233.288 183.857 233.51 181.387 234.366C178.917 235.222 176.7 236.684 174.942 238.618L160.502 254.35L158.813 256.207C158.708 256.321 158.609 256.441 158.518 256.566" stroke="#2D2D36" stroke-width="3.52" stroke-miterlimit="10"/>
<path d="M168.443 260.673L176.368 251.883L176.381 251.87" stroke="#2D2D36" stroke-width="3.52" stroke-miterlimit="10"/>
<path d="M237.382 306.077L274.659 319.212C278.249 320.477 282.069 320.955 285.86 320.611C289.651 320.268 293.323 319.113 296.628 317.224C299.932 315.335 302.791 312.756 305.01 309.663C307.229 306.57 308.756 303.037 309.487 299.301L318.307 254.276C318.758 251.964 318.737 249.585 318.245 247.281C317.753 244.978 316.8 242.797 315.444 240.871C315.066 240.329 314.654 239.81 314.211 239.318" stroke="#2D2D36" stroke-width="3.52" stroke-miterlimit="10"/>
<path d="M212.713 304.263C207.967 307.467 204.48 317.199 202.626 323.587C202.309 324.658 201.652 325.598 200.755 326.265C199.859 326.932 198.77 327.29 197.653 327.286C196.896 327.286 196.148 327.122 195.461 326.805C194.407 326.31 193.55 325.475 193.03 324.434C192.509 323.393 192.354 322.207 192.59 321.067C195.693 305.893 206.646 275.937 244.269 282.54C245.02 282.667 245.784 282.806 246.557 282.962L251.024 284.039L263.551 287.092L266.929 287.906C268.21 288.217 269.553 288.169 270.809 287.767C270.887 287.752 270.963 287.731 271.037 287.704C272.194 287.307 273.232 286.625 274.055 285.719C274.878 284.815 275.459 283.717 275.745 282.527L278.594 270.672L278.759 269.984L282.491 254.484" stroke="#2D2D36" stroke-width="3.52" stroke-miterlimit="10"/>
<path d="M194.363 255.678H181.595C180.139 255.678 178.744 255.1 177.714 254.071C176.685 253.041 176.106 251.645 176.106 250.189C176.106 248.734 176.685 247.338 177.714 246.308C178.744 245.279 180.139 244.701 181.595 244.701H199.683" stroke="#2D2D36" stroke-width="3.52" stroke-miterlimit="10"/>
<path d="M184.563 255.675C184.382 257.913 183.529 259.568 182.271 260.712C179.028 263.667 173.088 263.329 168.954 261.307" stroke="#2D2D36" stroke-width="3.52" stroke-miterlimit="10"/>
<path d="M160.519 254.344C156.858 249.919 157.606 243.92 160.447 239.284C168.507 226.128 186.924 228.653 198.868 234.12C208.545 238.537 217.023 245.174 225.277 251.794C229.309 255.028 233.27 258.397 237.099 261.927C237.802 262.563 238.64 263.032 239.551 263.297C240.461 263.563 241.419 263.618 242.354 263.46C243.289 263.301 244.175 262.933 244.947 262.382C245.719 261.832 246.356 261.113 246.81 260.28C248.921 256.383 251.205 252.132 251.636 250.954" stroke="#2D2D36" stroke-width="3.52" stroke-miterlimit="10"/>
<path d="M182.275 260.712C182.275 260.712 201.321 271.043 215.47 285.888" stroke="#2D2D36" stroke-width="3.52" stroke-miterlimit="10"/>
<path d="M208.064 309.866C205.953 313.471 207.768 318.766 211.758 320.033C216.854 321.677 222.241 322.217 227.561 321.616C233.367 320.94 237.226 316.148 239.767 310.66C239.951 310.251 240.047 309.808 240.049 309.361C240.051 308.913 239.958 308.47 239.777 308.06C239.597 307.65 239.332 307.283 239 306.982C238.667 306.681 238.276 306.454 237.85 306.315C237.082 306.062 236.247 306.108 235.511 306.444C234.776 306.779 234.194 307.38 233.882 308.126C233.037 310.077 231.733 312.517 230.002 313.615" stroke="#2D2D36" stroke-width="3.52" stroke-miterlimit="10"/>
<path d="M218.006 309.19C218.006 309.19 212.792 314.797 216.904 320.733C217.085 320.983 217.298 321.207 217.538 321.4" stroke="#2D2D36" stroke-width="3.52" stroke-miterlimit="10"/>
<path d="M224.884 310.115C224.884 310.115 220.063 320.966 226.248 321.76" stroke="#2D2D36" stroke-width="3.52" stroke-miterlimit="10"/>
<path d="M396.07 348.536H97.4658" stroke="#2D2D36" stroke-width="3.52" stroke-miterlimit="10"/>
<path d="M214.937 328.088H185.159C184.856 330.899 183.525 333.499 181.42 335.387C179.315 337.275 176.587 338.317 173.759 338.314H73.6699C73.6754 341.021 74.7533 343.615 76.6676 345.529C78.5815 347.443 81.176 348.521 83.8832 348.527H214.937C217.649 348.526 220.249 347.451 222.17 345.536C224.09 343.622 225.174 341.025 225.184 338.314V331.448C225.184 330.553 224.828 329.693 224.195 329.06C223.562 328.427 222.702 328.071 221.806 328.071L214.937 328.088Z" stroke="#2D2D36" stroke-width="3.52" stroke-miterlimit="10"/>
<path d="M168.954 261.307C169.832 262.521 170.463 263.895 170.812 265.352L184.918 324.183C185.23 325.46 185.311 326.782 185.159 328.088C184.857 330.899 183.525 333.499 181.42 335.387C179.315 337.275 176.587 338.318 173.759 338.314H71.8124C69.2378 338.314 66.7379 337.446 64.7167 335.851C62.6952 334.257 61.2698 332.027 60.6703 329.524L46.5896 270.697C46.1847 269.012 46.1674 267.259 46.5385 265.566C46.9096 263.874 47.6595 262.288 48.7323 260.928C49.8047 259.568 51.1718 258.468 52.7306 257.713C54.2894 256.957 55.9994 256.565 57.7317 256.566H159.67C161.345 256.562 163 256.929 164.516 257.639C166.033 258.349 167.374 259.385 168.444 260.674L168.954 261.307Z" stroke="#2D2D36" stroke-width="3.52" stroke-miterlimit="10"/>
<path d="M293.506 226.301C293.481 226.301 293.468 226.275 293.443 226.275C283.432 223.261 278.56 217.105 276.449 211.203C276.449 211.203 276.449 211.203 276.449 211.177C274.798 206.575 274.836 202.121 275.431 199.461C275.788 198.052 276.014 196.614 276.107 195.163C276.246 191.055 273.232 192.06 264.61 193.778C260.65 194.58 258.116 193.077 256.85 190.941C256.727 190.755 256.619 190.558 256.529 190.354C255.938 189.11 255.693 187.731 255.82 186.36" stroke="#2D2D36" stroke-width="3.52" stroke-miterlimit="10"/>
<path d="M250.858 210.021C250.706 209.806 250.55 209.599 250.398 209.434C249.064 207.91 247.536 208.088 245.146 209.012C244.546 209.24 243.035 209.177 241.84 208.759C240.835 208.4 240.084 207.779 240.426 206.85C240.513 206.659 240.644 206.491 240.807 206.359C240.971 206.226 241.162 206.133 241.367 206.086C241.765 205.986 242.168 205.905 242.575 205.846C246.674 204.929 245.758 200.184 245.26 197.207C244.052 189.717 245.657 180.901 250.77 175.062C256.402 168.64 265.615 167.302 273.396 170.241C280.24 172.825 286.679 178.431 288.013 185.926C288.013 185.951 288.013 185.976 288.038 186.002C288.064 186.027 288.038 186.065 288.038 186.09C288.828 190.773 288.038 195.848 287.122 200.479C286.573 203.224 286.78 205.466 287.544 207.319C289.938 213.386 298.015 215.502 304.525 218.503C319.932 225.601 332.484 237.735 340.945 252.491C347.625 264.195 349.208 271.394 348.841 275.835C348.33 281.801 344.285 282.772 344.285 282.772C340.865 284.795 335.609 282.62 334.553 278.829C334.537 278.788 334.529 278.745 334.528 278.702C333.683 275.455 332.037 271.284 329.824 266.72" stroke="#2D2D36" stroke-width="3.52" stroke-miterlimit="10"/>
<path d="M255.803 186.36C255.803 188.619 254.739 190.848 252.425 191.798C249.824 192.87 248.769 195.695 248.389 198.443C247.858 202.468 248.724 206.553 250.842 210.016C252.805 213.276 256.001 216.869 260.527 216.869C268.82 216.869 272.375 212.87 272.375 212.87" stroke="#2D2D36" stroke-width="3.52" stroke-miterlimit="10"/>
<path d="M264.412 199.74C265.191 199.74 265.822 199.109 265.822 198.33C265.822 197.552 265.191 196.92 264.412 196.92C263.633 196.92 263.002 197.552 263.002 198.33C263.002 199.109 263.633 199.74 264.412 199.74Z" fill="#2D2D36"/>
<path d="M252.008 200.563C252.787 200.563 253.418 199.932 253.418 199.153C253.418 198.375 252.787 197.743 252.008 197.743C251.229 197.743 250.598 198.375 250.598 199.153C250.598 199.932 251.229 200.563 252.008 200.563Z" fill="#2D2D36"/>
<path d="M258.092 197.004C258.092 197.004 257.387 202.573 257.669 203.337C257.952 204.101 259.717 203.228 259.717 203.228" stroke="#2D2D36" stroke-width="3.52" stroke-miterlimit="10"/>
<path d="M260.705 208.099C263.724 209.21 266.84 207.795 267.752 205.081" stroke="#2D2D36" stroke-width="3.52" stroke-miterlimit="10"/>
<path d="M271.711 200.368C273.759 197.469 273.012 193.419 270.043 191.321C267.074 189.224 263.007 189.873 260.959 192.772C258.911 195.67 259.658 199.721 262.627 201.818C265.596 203.916 269.663 203.266 271.711 200.368Z" stroke="#2D2D36" stroke-width="3.52" stroke-miterlimit="10"/>
<path d="M255.22 201.197C257.267 198.299 256.521 194.248 253.552 192.151C250.583 190.053 246.515 190.703 244.468 193.601C242.42 196.5 243.167 200.55 246.136 202.648C249.105 204.745 253.172 204.096 255.22 201.197Z" stroke="#2D2D36" stroke-width="3.52" stroke-miterlimit="10"/>
<path d="M249.727 192.923C250.9 192.919 252.03 193.36 252.892 194.155C253.753 194.951 254.282 196.043 254.371 197.212C254.418 197.793 254.348 198.377 254.164 198.93C253.979 199.483 253.685 199.993 253.299 200.429C252.908 200.872 252.433 201.231 251.9 201.485C251.368 201.739 250.789 201.882 250.2 201.907H249.963C248.79 201.911 247.659 201.47 246.797 200.673C245.936 199.876 245.408 198.783 245.319 197.613C245.273 197.032 245.345 196.448 245.53 195.895C245.715 195.342 246.009 194.832 246.396 194.396C246.786 193.955 247.261 193.597 247.793 193.343C248.325 193.089 248.902 192.944 249.491 192.918H249.727V192.923ZM249.727 191.964H249.444C248.732 191.996 248.034 192.171 247.391 192.477C246.748 192.784 246.174 193.217 245.701 193.75C245.228 194.283 244.868 194.906 244.641 195.581C244.413 196.256 244.324 196.97 244.378 197.681C244.492 199.088 245.131 200.402 246.168 201.36C247.205 202.319 248.564 202.853 249.976 202.857H250.259C250.971 202.825 251.669 202.651 252.312 202.344C252.955 202.037 253.529 201.604 254.002 201.071C254.475 200.538 254.835 199.915 255.062 199.24C255.29 198.565 255.38 197.851 255.326 197.14C255.211 195.733 254.572 194.42 253.535 193.461C252.498 192.502 251.139 191.968 249.727 191.964Z" fill="#E2E2E2"/>
<path d="M259.822 196.915L256.36 197.092" stroke="#2D2D36" stroke-width="3.52" stroke-miterlimit="10"/>
<path opacity="0.53" d="M270.886 199.786C272.621 197.331 271.988 193.901 269.475 192.125C266.96 190.349 263.517 190.899 261.782 193.354C260.048 195.809 260.68 199.239 263.194 201.015C265.708 202.791 269.152 202.241 270.886 199.786Z" fill="#E2E2E2"/>
<path opacity="0.53" d="M254.396 200.615C256.13 198.161 255.498 194.731 252.984 192.955C250.471 191.179 247.027 191.729 245.292 194.184C243.558 196.639 244.19 200.069 246.704 201.844C249.218 203.621 252.661 203.07 254.396 200.615Z" fill="#E2E2E2"/>
<path d="M262.997 216.87L270.686 235.134C270.686 235.134 285.518 239.124 289.123 225.09" stroke="#2D2D36" stroke-width="3.52" stroke-miterlimit="10"/>
<path d="M117.119 311.532C122.926 309.701 125.966 302.927 123.908 296.402C121.851 289.878 115.476 286.072 109.67 287.903C103.863 289.734 100.823 296.508 102.881 303.032C104.938 309.557 111.313 313.363 117.119 311.532Z" fill="#4D8F9B"/>
<path d="M260.945 348.527C260.781 333.661 258.159 318.972 256.951 312.977" stroke="#2D2D36" stroke-width="3.52" stroke-miterlimit="10"/>
</svg>
